/* XPM */
static char *star[] = {
"16 16 4 1 ",
"  c None",
"* c #ffffff",
"- c #efefef",
"# c #ffffff",
"                ",
"        #       ",
"       ##       ",
"      #--#      ",
"      #--#      ",
"     #--*-#     ",
"   ##--**--##   ",
" ##--*****---#  ",
"  #---*****--## ",
"   ##--**--##   ",
"     #-*--#     ",
"      #--#      ",
"      #--#      ",
"       ##       ",
"       #        ",
"                "};
