/* XPM */
static char *blueprint[] = {
"16 16 6 1 ",
"  c None",
"# c #444444",
"- c #bb0000",
"* c #cc9900",
"! c #888888",
"| c #666666",
"     ||||||     ",
"    |!!!!!!|    ",
"   |!!!##!!!|   ",
"  |!!!####!!!|  ",
"  |!!######!!|  ",
"  |!!######!!|  ",
"  |!!------!!|  ",
"  |!!------!!|  ",
"  |!!######!!|  ",
"  |!!######!!|  ",
"  |!!------!!|  ",
"  |!!------!!|  ",
"  |!!######!!|  ",
"   |!######!|   ",
"    |!!**!!|    ",
"     ||||||     "};
