/* XPM */
static char *item[] = {
"16 16 4 1 ",
"  c None",
"# c #444444",
"- c #bb0000",
"* c #cc9900",
"       ##       ",
"      ####      ",
"     ######     ",
"     ######     ",
"     ######     ",
"     ------     ",
"     ------     ",
"     ######     ",
"     ######     ",
"     ------     ",
"     ------     ",
"     ######     ",
"     ######     ",
"     ######     ",
"       **       ",
"      *  *      ",
"     *    *     "};
